<svg width="112" height="17" viewBox="0 0 112 17" fill="none" xmlns="http://www.w3.org/2000/svg">
<path d="M9.7755 3.5785C9.6915 3.7255 9.6005 3.834 9.5025 3.904C9.4115 3.967 9.296 3.9985 9.156 3.9985C9.009 3.9985 8.848 3.946 8.673 3.841C8.505 3.729 8.302 3.6065 8.064 3.4735C7.826 3.3405 7.546 3.2215 7.224 3.1165C6.909 3.0045 6.5345 2.9485 6.1005 2.9485C5.7085 2.9485 5.3655 2.9975 5.0715 3.0955C4.7775 3.1865 4.529 3.316 4.326 3.484C4.13 3.652 3.983 3.855 3.885 4.093C3.787 4.324 3.738 4.5795 3.738 4.8595C3.738 5.2165 3.836 5.514 4.032 5.752C4.235 5.99 4.501 6.193 4.83 6.361C5.159 6.529 5.5335 6.6795 5.9535 6.8125C6.3735 6.9455 6.804 7.089 7.245 7.243C7.686 7.39 8.1165 7.565 8.5365 7.768C8.9565 7.964 9.331 8.216 9.66 8.524C9.989 8.825 10.2515 9.196 10.4475 9.637C10.6505 10.078 10.752 10.6135 10.752 11.2435C10.752 11.9295 10.633 12.5735 10.395 13.1755C10.164 13.7705 9.821 14.292 9.366 14.74C8.918 15.181 8.3685 15.531 7.7175 15.79C7.0665 16.042 6.321 16.168 5.481 16.168C4.998 16.168 4.522 16.119 4.053 16.021C3.584 15.93 3.1325 15.797 2.6985 15.622C2.2715 15.447 1.869 15.237 1.491 14.992C1.113 14.747 0.777 14.474 0.483 14.173L1.3125 12.8185C1.3825 12.7205 1.4735 12.64 1.5855 12.577C1.6975 12.507 1.8165 12.472 1.9425 12.472C2.1175 12.472 2.3065 12.5455 2.5095 12.6925C2.7125 12.8325 2.954 12.99 3.234 13.165C3.514 13.34 3.8395 13.501 4.2105 13.648C4.5885 13.788 5.04 13.858 5.565 13.858C6.37 13.858 6.993 13.669 7.434 13.291C7.875 12.906 8.0955 12.3565 8.0955 11.6425C8.0955 11.2435 7.994 10.918 7.791 10.666C7.595 10.414 7.3325 10.204 7.0035 10.036C6.6745 9.861 6.3 9.714 5.88 9.595C5.46 9.476 5.033 9.3465 4.599 9.2065C4.165 9.0665 3.738 8.8985 3.318 8.7025C2.898 8.5065 2.5235 8.251 2.1945 7.936C1.8655 7.621 1.5995 7.229 1.3965 6.76C1.2005 6.284 1.1025 5.6995 1.1025 5.0065C1.1025 4.4535 1.211 3.9145 1.428 3.3895C1.652 2.8645 1.974 2.399 2.394 1.993C2.814 1.587 3.332 1.2615 3.948 1.0165C4.564 0.7715 5.271 0.649 6.069 0.649C6.965 0.649 7.791 0.789 8.547 1.069C9.303 1.349 9.947 1.741 10.479 2.245L9.7755 3.5785ZM17.5324 5.059C18.3304 5.059 19.0549 5.1885 19.7059 5.4475C20.3639 5.7065 20.9239 6.074 21.3859 6.55C21.8549 7.026 22.2154 7.607 22.4674 8.293C22.7194 8.979 22.8454 9.7455 22.8454 10.5925C22.8454 11.4465 22.7194 12.2165 22.4674 12.9025C22.2154 13.5885 21.8549 14.173 21.3859 14.656C20.9239 15.139 20.3639 15.51 19.7059 15.769C19.0549 16.028 18.3304 16.1575 17.5324 16.1575C16.7274 16.1575 15.9959 16.028 15.3379 15.769C14.6799 15.51 14.1164 15.139 13.6474 14.656C13.1854 14.173 12.8249 13.5885 12.5659 12.9025C12.3139 12.2165 12.1879 11.4465 12.1879 10.5925C12.1879 9.7455 12.3139 8.979 12.5659 8.293C12.8249 7.607 13.1854 7.026 13.6474 6.55C14.1164 6.074 14.6799 5.7065 15.3379 5.4475C15.9959 5.1885 16.7274 5.059 17.5324 5.059ZM17.5324 14.1625C18.4284 14.1625 19.0899 13.8615 19.5169 13.2595C19.9509 12.6575 20.1679 11.7755 20.1679 10.6135C20.1679 9.4515 19.9509 8.566 19.5169 7.957C19.0899 7.348 18.4284 7.0435 17.5324 7.0435C16.6224 7.0435 15.9469 7.3515 15.5059 7.9675C15.0719 8.5765 14.8549 9.4585 14.8549 10.6135C14.8549 11.7685 15.0719 12.6505 15.5059 13.2595C15.9469 13.8615 16.6224 14.1625 17.5324 14.1625ZM32.5415 7.5055C32.4645 7.6035 32.3875 7.6805 32.3105 7.7365C32.2405 7.7925 32.1355 7.8205 31.9955 7.8205C31.8625 7.8205 31.733 7.782 31.607 7.705C31.481 7.621 31.3305 7.53 31.1555 7.432C30.9805 7.327 30.7705 7.236 30.5255 7.159C30.2875 7.075 29.99 7.033 29.633 7.033C29.178 7.033 28.779 7.117 28.436 7.285C28.093 7.446 27.806 7.6805 27.575 7.9885C27.351 8.2965 27.183 8.671 27.071 9.112C26.959 9.546 26.903 10.0395 26.903 10.5925C26.903 11.1665 26.9625 11.6775 27.0815 12.1255C27.2075 12.5735 27.386 12.9515 27.617 13.2595C27.848 13.5605 28.128 13.7915 28.457 13.9525C28.786 14.1065 29.157 14.1835 29.57 14.1835C29.983 14.1835 30.3155 14.1345 30.5675 14.0365C30.8265 13.9315 31.0435 13.8195 31.2185 13.7005C31.3935 13.5745 31.544 13.4625 31.67 13.3645C31.803 13.2595 31.95 13.207 32.111 13.207C32.321 13.207 32.4785 13.2875 32.5835 13.4485L33.329 14.3935C33.042 14.7295 32.7305 15.013 32.3945 15.244C32.0585 15.468 31.7085 15.65 31.3445 15.79C30.9875 15.923 30.6165 16.0175 30.2315 16.0735C29.8535 16.1295 29.4755 16.1575 29.0975 16.1575C28.4325 16.1575 27.806 16.035 27.218 15.79C26.63 15.538 26.1155 15.174 25.6745 14.698C25.2335 14.222 24.8835 13.641 24.6245 12.955C24.3725 12.262 24.2465 11.4745 24.2465 10.5925C24.2465 9.8015 24.3585 9.07 24.5825 8.398C24.8135 7.719 25.1495 7.1345 25.5905 6.6445C26.0315 6.1475 26.5775 5.759 27.2285 5.479C27.8795 5.199 28.6285 5.059 29.4755 5.059C30.2805 5.059 30.984 5.1885 31.586 5.4475C32.195 5.7065 32.741 6.0775 33.224 6.5605L32.5415 7.5055ZM37.6428 5.227V16H35.0388V5.227H37.6428ZM37.9998 2.0875C37.9998 2.3115 37.9543 2.5215 37.8633 2.7175C37.7723 2.9135 37.6498 3.085 37.4958 3.232C37.3488 3.379 37.1738 3.498 36.9708 3.589C36.7678 3.673 36.5508 3.715 36.3198 3.715C36.0958 3.715 35.8823 3.673 35.6793 3.589C35.4833 3.498 35.3118 3.379 35.1648 3.232C35.0178 3.085 34.8988 2.9135 34.8078 2.7175C34.7238 2.5215 34.6818 2.3115 34.6818 2.0875C34.6818 1.8565 34.7238 1.6395 34.8078 1.4365C34.8988 1.2335 35.0178 1.0585 35.1648 0.9115C35.3118 0.764499 35.4833 0.648999 35.6793 0.565C35.8823 0.474 36.0958 0.4285 36.3198 0.4285C36.5508 0.4285 36.7678 0.474 36.9708 0.565C37.1738 0.648999 37.3488 0.764499 37.4958 0.9115C37.6498 1.0585 37.7723 1.2335 37.8633 1.4365C37.9543 1.6395 37.9998 1.8565 37.9998 2.0875ZM45.9779 11.401C45.2289 11.436 44.5989 11.5025 44.0879 11.6005C43.5769 11.6915 43.1674 11.8105 42.8594 11.9575C42.5514 12.1045 42.3309 12.276 42.1979 12.472C42.0649 12.668 41.9984 12.8815 41.9984 13.1125C41.9984 13.5675 42.1314 13.893 42.3974 14.089C42.6704 14.285 43.0239 14.383 43.4579 14.383C43.9899 14.383 44.4484 14.2885 44.8334 14.0995C45.2254 13.9035 45.6069 13.6095 45.9779 13.2175V11.401ZM40.0349 6.7285C41.2739 5.5945 42.7649 5.0275 44.5079 5.0275C45.1379 5.0275 45.7014 5.1325 46.1984 5.3425C46.6954 5.5455 47.1154 5.8325 47.4584 6.2035C47.8014 6.5675 48.0604 7.005 48.2354 7.516C48.4174 8.027 48.5084 8.587 48.5084 9.196V16H47.3324C47.0874 16 46.8984 15.965 46.7654 15.895C46.6324 15.818 46.5274 15.6675 46.4504 15.4435L46.2194 14.6665C45.9464 14.9115 45.6804 15.1285 45.4214 15.3175C45.1624 15.4995 44.8929 15.6535 44.6129 15.7795C44.3329 15.9055 44.0319 16 43.7099 16.063C43.3949 16.133 43.0449 16.168 42.6599 16.168C42.2049 16.168 41.7849 16.1085 41.3999 15.9895C41.0149 15.8635 40.6824 15.678 40.4024 15.433C40.1224 15.188 39.9054 14.8835 39.7514 14.5195C39.5974 14.1555 39.5204 13.732 39.5204 13.249C39.5204 12.976 39.5659 12.7065 39.6569 12.4405C39.7479 12.1675 39.8949 11.9085 40.0979 11.6635C40.3079 11.4185 40.5774 11.1875 40.9064 10.9705C41.2354 10.7535 41.6379 10.5645 42.1139 10.4035C42.5969 10.2425 43.1569 10.113 43.7939 10.015C44.4309 9.91 45.1589 9.847 45.9779 9.826V9.196C45.9779 8.475 45.8239 7.943 45.5159 7.6C45.2079 7.25 44.7634 7.075 44.1824 7.075C43.7624 7.075 43.4124 7.124 43.1324 7.222C42.8594 7.32 42.6179 7.432 42.4079 7.558C42.1979 7.677 42.0054 7.7855 41.8304 7.8835C41.6624 7.9815 41.4734 8.0305 41.2634 8.0305C41.0814 8.0305 40.9274 7.985 40.8014 7.894C40.6754 7.796 40.5739 7.684 40.4969 7.558L40.0349 6.7285ZM53.5759 0.396999V16H50.9824V0.396999H53.5759ZM59.2403 3.064V7.2745H64.5533V9.448H59.2403V13.7425H65.9813V16H56.4053V0.816999H65.9813V3.064H59.2403ZM74.4678 7.978C74.1738 7.621 73.8518 7.369 73.5018 7.222C73.1588 7.075 72.7878 7.0015 72.3888 7.0015C71.9968 7.0015 71.6433 7.075 71.3283 7.222C71.0133 7.369 70.7438 7.593 70.5198 7.894C70.2958 8.188 70.1243 8.566 70.0053 9.028C69.8863 9.483 69.8268 10.022 69.8268 10.645C69.8268 11.275 69.8758 11.8105 69.9738 12.2515C70.0788 12.6855 70.2258 13.0425 70.4148 13.3225C70.6038 13.5955 70.8348 13.795 71.1078 13.921C71.3808 14.04 71.6853 14.0995 72.0213 14.0995C72.5603 14.0995 73.0188 13.9875 73.3968 13.7635C73.7748 13.5395 74.1318 13.221 74.4678 12.808V7.978ZM77.0613 0.396999V16H75.4758C75.1328 16 74.9158 15.8425 74.8248 15.5275L74.6043 14.488C74.1703 14.985 73.6698 15.3875 73.1028 15.6955C72.5428 16.0035 71.8883 16.1575 71.1393 16.1575C70.5513 16.1575 70.0123 16.035 69.5223 15.79C69.0323 15.545 68.6088 15.1915 68.2518 14.7295C67.9018 14.2605 67.6288 13.683 67.4328 12.997C67.2438 12.311 67.1493 11.527 67.1493 10.645C67.1493 9.847 67.2578 9.105 67.4748 8.419C67.6918 7.733 68.0033 7.138 68.4093 6.634C68.8153 6.13 69.3018 5.738 69.8688 5.458C70.4358 5.171 71.0728 5.0275 71.7798 5.0275C72.3818 5.0275 72.8963 5.122 73.3233 5.311C73.7503 5.5 74.1318 5.7555 74.4678 6.0775V0.396999H77.0613ZM82.3088 5.227V16H79.7048V5.227H82.3088ZM82.6658 2.0875C82.6658 2.3115 82.6203 2.5215 82.5293 2.7175C82.4383 2.9135 82.3158 3.085 82.1618 3.232C82.0148 3.379 81.8398 3.498 81.6368 3.589C81.4338 3.673 81.2168 3.715 80.9858 3.715C80.7618 3.715 80.5483 3.673 80.3453 3.589C80.1493 3.498 79.9778 3.379 79.8308 3.232C79.6838 3.085 79.5648 2.9135 79.4738 2.7175C79.3898 2.5215 79.3478 2.3115 79.3478 2.0875C79.3478 1.8565 79.3898 1.6395 79.4738 1.4365C79.5648 1.2335 79.6838 1.0585 79.8308 0.9115C79.9778 0.764499 80.1493 0.648999 80.3453 0.565C80.5483 0.474 80.7618 0.4285 80.9858 0.4285C81.2168 0.4285 81.4338 0.474 81.6368 0.565C81.8398 0.648999 82.0148 0.764499 82.1618 0.9115C82.3158 1.0585 82.4383 1.2335 82.5293 1.4365C82.6203 1.6395 82.6658 1.8565 82.6658 2.0875ZM88.5439 16.168C87.6059 16.168 86.8849 15.9055 86.3809 15.3805C85.8839 14.8485 85.6354 14.117 85.6354 13.186V7.1695H84.5329C84.3929 7.1695 84.2739 7.124 84.1759 7.033C84.0779 6.942 84.0289 6.8055 84.0289 6.6235V5.5945L85.7614 5.311L86.3074 2.371C86.3424 2.231 86.4089 2.1225 86.5069 2.0455C86.6049 1.9685 86.7309 1.93 86.8849 1.93H88.2289V5.3215H91.1059V7.1695H88.2289V13.0075C88.2289 13.3435 88.3094 13.606 88.4704 13.795C88.6384 13.984 88.8659 14.0785 89.1529 14.0785C89.3139 14.0785 89.4469 14.061 89.5519 14.026C89.6639 13.984 89.7584 13.942 89.8354 13.9C89.9194 13.858 89.9929 13.8195 90.0559 13.7845C90.1189 13.7425 90.1819 13.7215 90.2449 13.7215C90.3219 13.7215 90.3849 13.7425 90.4339 13.7845C90.4829 13.8195 90.5354 13.8755 90.5914 13.9525L91.3684 15.2125C90.9904 15.5275 90.5564 15.7655 90.0664 15.9265C89.5764 16.0875 89.0689 16.168 88.5439 16.168ZM97.4513 5.059C98.2493 5.059 98.9738 5.1885 99.6248 5.4475C100.283 5.7065 100.843 6.074 101.305 6.55C101.774 7.026 102.134 7.607 102.386 8.293C102.638 8.979 102.764 9.7455 102.764 10.5925C102.764 11.4465 102.638 12.2165 102.386 12.9025C102.134 13.5885 101.774 14.173 101.305 14.656C100.843 15.139 100.283 15.51 99.6248 15.769C98.9738 16.028 98.2493 16.1575 97.4513 16.1575C96.6463 16.1575 95.9148 16.028 95.2568 15.769C94.5988 15.51 94.0353 15.139 93.5663 14.656C93.1043 14.173 92.7438 13.5885 92.4848 12.9025C92.2328 12.2165 92.1068 11.4465 92.1068 10.5925C92.1068 9.7455 92.2328 8.979 92.4848 8.293C92.7438 7.607 93.1043 7.026 93.5663 6.55C94.0353 6.074 94.5988 5.7065 95.2568 5.4475C95.9148 5.1885 96.6463 5.059 97.4513 5.059ZM97.4513 14.1625C98.3473 14.1625 99.0088 13.8615 99.4358 13.2595C99.8698 12.6575 100.087 11.7755 100.087 10.6135C100.087 9.4515 99.8698 8.566 99.4358 7.957C99.0088 7.348 98.3473 7.0435 97.4513 7.0435C96.5413 7.0435 95.8658 7.3515 95.4248 7.9675C94.9908 8.5765 94.7738 9.4585 94.7738 10.6135C94.7738 11.7685 94.9908 12.6505 95.4248 13.2595C95.8658 13.8615 96.5413 14.1625 97.4513 14.1625ZM107.189 7.096C107.525 6.452 107.924 5.948 108.386 5.584C108.848 5.213 109.394 5.0275 110.024 5.0275C110.521 5.0275 110.92 5.136 111.221 5.353L111.053 7.2955C111.018 7.4215 110.966 7.5125 110.896 7.5685C110.833 7.6175 110.745 7.642 110.633 7.642C110.528 7.642 110.371 7.6245 110.161 7.5895C109.958 7.5545 109.758 7.537 109.562 7.537C109.275 7.537 109.02 7.579 108.796 7.663C108.572 7.747 108.369 7.8695 108.187 8.0305C108.012 8.1845 107.854 8.3735 107.714 8.5975C107.581 8.8215 107.455 9.077 107.336 9.364V16H104.743V5.227H106.265C106.531 5.227 106.717 5.276 106.822 5.374C106.927 5.465 106.997 5.633 107.032 5.878L107.189 7.096Z" fill="white"/>
</svg>
